:version 1.10
:name ASF
:units
  mass 1
  length 1
  angle deg
:documentation
  ASF file generated by Kaydara
:root
  axis xyz
  order  tx ty tz rx ry rz
  position 0 0 0
  orientation 0 0 0
:bonedata
  begin
    id 1
    name LeftUpLegDummy
    direction 1 -2.30186e-007 -8.31532e-007
    length 2.93387
    axis 0 0 0 xyz
  end
  begin
    id 2
    name LeftUpLeg
    direction -1.82929e-007 -1 -1.48925e-009
    length 17.3336
    axis -3.48766 0.00143442 -0.000521554 xyz
    dof rx ry rz
  end
  begin
    id 3
    name LeftLeg
    direction -1.82929e-007 -1 -5.23717e-011
    length 14.9995
    axis 3.68178 -0.00654042 -0.000282425 xyz
    dof rx ry rz
  end
  begin
    id 4
    name LeftFoot
    direction 8.31532e-007 -4.54534e-011 1
    length 6.74421
    axis 1.87234e-006 4.66016e-005 -5.96866e-006 xyz
    dof rx ry rz
  end
  begin
    id 5
    name LeftToes
    direction 0.00818058 -0.00485161 0.999955
    length 3.85048
    axis 1.06247e-005 4.65869e-005 -5.96999e-006 xyz
    dof rx ry rz
  end
  begin
    id 6
    name SpineDummy
    direction -5.8607e-008 0.943407 -0.331637
    length 5.93572
    axis 0 0 0 xyz
  end
  begin
    id 7
    name Spine
    direction -1.04988e-007 0.999988 0.00495137
    length 10.1015
    axis -0.001389 0.000121417 6.61666e-006 xyz
    dof rx ry rz
  end
  begin
    id 8
    name Spine1
    direction 0 0 0
    length 0
    axis -0.001389 0.00012144 6.56766e-006 xyz
    dof rx ry rz
  end
  begin
    id 9
    name RightShoulderDummy
    direction -0.98348 0.17941 -0.0240696
    length 3.59882
    axis -0.001389 0.00012144 6.56766e-006 xyz
  end
  begin
    id 10
    name RightShoulder
    direction -0.978693 0.204882 0.0135597
    length 2.70001
    axis 0.215806 0.000203631 -0.00679732 xyz
    dof rx ry rz
  end
  begin
    id 11
    name RightArm
    direction -1 3.85509e-006 8.31394e-007
    length 10.2459
    axis -23.2009 -0.134239 -0.964098 xyz
    dof rx ry rz
  end
  begin
    id 12
    name RightForeArm
    direction -1 3.85569e-006 8.3129e-007
    length 8.16799
    axis -9.92322 0.0658061 0.17887 xyz
    dof rx ry rz
  end
  begin
    id 13
    name RightHand
    direction -0.992843 -0.0414604 0.112003
    length 5.28593
    axis -0.00960638 0.00330669 -0.185225 xyz
    dof rx ry rz
  end
  begin
    id 14
    name LeftShoulder1Dummy
    direction 0.983523 0.179172 -0.0240748
    length 3.59866
    axis -0.001389 0.00012144 6.56766e-006 xyz
  end
  begin
    id 15
    name LeftShoulder1
    direction 0.978627 0.205195 0.0135605
    length 2.70019
    axis -0.001389 0.00012144 6.57583e-006 xyz
    dof rx ry rz
  end
  begin
    id 16
    name LeftArm
    direction 1 3.51895e-006 -8.60188e-007
    length 10.2459
    axis -23.1894 0.134785 0.967513 xyz
    dof rx ry rz
  end
  begin
    id 17
    name LeftForeArm
    direction 1 3.51921e-006 -7.32029e-007
    length 8.16799
    axis -9.91835 -0.0656957 -0.177789 xyz
    dof rx ry rz
  end
  begin
    id 18
    name LeftHand
    direction 0.992938 -0.0411636 0.11126
    length 5.32135
    axis -0.00960237 -0.00340661 0.185177 xyz
    dof rx ry rz
  end
  begin
    id 19
    name HEadDummy
    direction 1.01974e-006 0.999861 -0.016675
    length 2.99946
    axis -0.001389 0.00012144 6.56766e-006 xyz
  end
  begin
    id 20
    name HEad
    direction -0.0222689 0.980941 0.193023
    length 5.12695
    axis -0.001389 0.00012144 6.56766e-006 xyz
    dof rx ry rz
  end
  begin
    id 21
    name RightUpLegDummy
    direction -1 2.30186e-007 8.31532e-007
    length 2.93387
    axis 0 0 0 xyz
  end
  begin
    id 22
    name RightUpLeg
    direction -1.82966e-007 -1 1.56832e-007
    length 17.3336
    axis -3.4909 -0.000906625 0.00028951 xyz
    dof rx ry rz
  end
  begin
    id 23
    name RightLeg
    direction -1.82786e-007 -1 -1.80317e-007
    length 14.9995
    axis 3.68513 0.0193739 -0.131021 xyz
    dof rx ry rz
  end
  begin
    id 24
    name RightFoot
    direction 8.31721e-007 -4.63324e-011 1
    length 6.74421
    axis 4.81691e-005 -0.120479 -0.188785 xyz
    dof rx ry rz
  end
  begin
    id 25
    name RightToes
    direction 0.00124746 -0.014064 0.9999
    length 3.85082
    axis 0.000481921 0.542163 -0.142575 xyz
    dof rx ry rz
  end
:hierarchy
  begin
    root LeftUpLegDummy SpineDummy RightUpLegDummy
    LeftUpLegDummy LeftUpLeg
    LeftUpLeg LeftLeg
    LeftLeg LeftFoot
    LeftFoot LeftToes
    SpineDummy Spine
    Spine Spine1
    Spine1 RightShoulderDummy LeftShoulder1Dummy HEadDummy
    RightShoulderDummy RightShoulder
    RightShoulder RightArm
    RightArm RightForeArm
    RightForeArm RightHand
    LeftShoulder1Dummy LeftShoulder1
    LeftShoulder1 LeftArm
    LeftArm LeftForeArm
    LeftForeArm LeftHand
    HEadDummy HEad
    RightUpLegDummy RightUpLeg
    RightUpLeg RightLeg
    RightLeg RightFoot
    RightFoot RightToes
  end

:SAMPLES-PER-SECOND 30
:FULLY-SPECIFIED
:DEGREES
47
root  -25.4998 33.6662 -22.5648 7.46415 51.5408 -0.326937
LeftUpLeg  -4.89583 7.06283 -0.734367
LeftLeg  13.1118 4.74269 0.785232
LeftFoot  -8.65041 -0.0534139 -0.706226
LeftToes  -14.2182 6.91067e-007 1.07128e-007
Spine  3.43746 -1.85071 -0.740497
Spine1  6.75608 -3.9978 -1.15066
RightShoulder  -0.00942362 5.08945 5.00655
RightArm  -44.3403 -26.2302 76.7868
RightForeArm  21.23 26.9537 5.14029
RightHand  0.317432 -6.32962 -5.36061
LeftShoulder1  0.0564544 -0.665127 -9.15739
LeftArm  -12.0706 5.40432 -63.9831
LeftForeArm  26.107 -21.7174 -4.02011
LeftHand  0.153145 4.79547 3.28145
HEad  9.62605 -7.21366 1.02915
RightUpLeg  -33.3938 -11.5522 -0.279943
RightLeg  13.7775 -2.71288 -0.481669
RightFoot  1.93033 0.0062754 -0.0935879
RightToes  -31.2654 -0.152731 -0.260664
48
root  -25.0242 33.5041 -21.9727 8.54227 51.3946 0.80721
LeftUpLeg  -4.15217 7.13499 -1.03433
LeftLeg  13.9938 4.83693 0.877327
LeftFoot  -9.8789 -0.0712478 -0.824395
LeftToes  -15.0173 6.91067e-007 1.07128e-007
Spine  3.37856 -1.86923 -0.812258
Spine1  6.64404 -4.04067 -1.29417
RightShoulder  -0.0077701 4.87831 4.96507
RightArm  -43.1149 -25.8251 76.5782
RightForeArm  19.5744 26.9007 5.12837
RightHand  0.336835 -6.18302 -5.85426
LeftShoulder1  0.0569869 -0.737709 -9.16713
LeftArm  -12.6825 6.54798 -64.6333
LeftForeArm  26.7534 -20.5391 -3.78081
LeftHand  0.163103 4.92886 3.41352
HEad  9.88055 -7.44412 1.18687
RightUpLeg  -33.0947 -12.0884 -0.672727
RightLeg  10.4562 -3.92131 -0.463544
RightFoot  2.58831 0.0125418 -0.177561
RightToes  -30.3385 -0.144598 -0.252499
49
root  -24.4942 33.3271 -21.2784 9.51297 51.4071 1.80096
LeftUpLeg  -3.25689 7.21579 -1.11782
LeftLeg  14.9132 4.82512 0.955197
LeftFoot  -11.0392 -0.0890878 -0.921898
LeftToes  -16.2439 6.91067e-007 1.07128e-007
Spine  3.24801 -1.88458 -0.83043
Spine1  6.39381 -4.0576 -1.36011
RightShoulder  -0.00577965 4.94881 5.19369
RightArm  -44.0147 -25.736 76.4491
RightForeArm  19.2958 26.6375 5.06981
RightHand  0.354182 -6.13778 -6.22228
LeftShoulder1  0.0559481 -0.83415 -9.17606
LeftArm  -13.6006 8.26762 -65.2592
LeftForeArm  26.9742 -19.476 -3.56829
LeftHand  0.165321 5.071 3.35753
HEad  10.1585 -7.84404 1.43156
RightUpLeg  -32.5263 -13.658 -0.404654
RightLeg  7.59875 -4.75384 -0.322978
RightFoot  3.88691 0.0238603 -0.325547
RightToes  -29.1041 -0.1378 -0.245691
50
root  -23.921 33.1501 -20.4728 10.1114 51.5544 2.35856
LeftUpLeg  -2.14902 6.90578 -0.819798
LeftLeg  15.8137 5.1287 1.09904
LeftFoot  -12.1484 -0.115384 -1.08427
LeftToes  -17.3244 6.91067e-007 1.07128e-007
Spine  3.05817 -1.85764 -0.720915
Spine1  6.02288 -3.98078 -1.1895
RightShoulder  -0.00335479 4.99717 5.62234
RightArm  -45.8377 -25.9742 76.2338
RightForeArm  19.7449 26.3732 5.0114
RightHand  0.379541 -6.51302 -6.28674
LeftShoulder1  0.0515479 -0.802112 -9.19889
LeftArm  -14.3771 10.3674 -65.9286
LeftForeArm  26.8741 -18.4784 -3.37161
LeftHand  0.175491 5.25046 3.45149
HEad  10.4624 -8.40272 1.60451
RightUpLeg  -31.9036 -16.6561 1.03995
RightLeg  5.80291 -4.73924 -0.173319
RightFoot  5.50582 0.0405445 -0.465572
RightToes  -29.7262 -0.14204 -0.250059
51
root  -23.3223 32.9944 -19.5487 9.35158 52.0294 1.33167
LeftUpLeg  -0.999737 6.31878 0.68077
LeftLeg  17.1855 5.33485 1.27708
LeftFoot  -13.2256 -0.143664 -1.23919
LeftToes  -19.1732 6.91067e-007 1.07128e-007
Spine  2.81291 -1.77974 -0.223165
Spine1  5.52915 -3.80321 -0.262089
RightShoulder  -0.000654208 4.97391 5.73674
RightArm  -46.8004 -26.1378 75.6154
RightForeArm  19.4011 24.7424 4.65651
RightHand  0.403419 -6.65088 -6.55802
LeftShoulder1  0.0442669 -0.810884 -9.16782
LeftArm  -15.0749 12.9131 -66.7925
LeftForeArm  26.777 -17.708 -3.22136
LeftHand  0.160243 5.42598 3.00688
HEad  10.7755 -9.11388 1.64896
RightUpLeg  -30.4904 -18.9626 3.03973
RightLeg  4.69466 -3.72615 -0.064194
RightFoot  7.87992 0.0626408 -0.531884
RightToes  -27.845 -0.129367 -0.236713
52
root  -22.7164 32.8814 -18.5514 7.85571 52.6997 -0.532739
LeftUpLeg  0.0271483 4.88648 2.6926
LeftLeg  19.0705 6.06624 1.66381
LeftFoot  -13.7579 -0.179579 -1.48847
LeftToes  -22.2043 6.91067e-007 1.07128e-007
Spine  2.59843 -1.64184 0.436003
Spine1  5.09907 -3.51904 0.992091
RightShoulder  0.00503245 4.92505 6.02607
RightArm  -47.3765 -26.1157 74.5704
RightForeArm  19.1619 22.2185 4.12577
RightHand  0.405952 -6.72168 -6.52808
LeftShoulder1  0.0367023 -0.88375 -9.13135
LeftArm  -15.329 15.4387 -67.5052
LeftForeArm  26.7357 -17.1415 -3.11174
LeftHand  0.148498 5.7682 2.57388
HEad  10.8011 -10.1219 1.69562
RightUpLeg  -28.057 -18.3399 3.88331
RightLeg  2.8141 -4.03618 0.0624306
RightFoot  14.0834 0.173012 -1.02297
RightToes  -28.6722 -0.134885 -0.242632
53
root  -22.1121 32.8862 -17.5364 5.50975 52.8201 -3.05958
LeftUpLeg  0.745489 3.01264 4.87355
LeftLeg  22.3019 7.40982 2.48542
LeftFoot  -12.8644 -0.196927 -1.74665
LeftToes  -27.3657 6.91067e-007 1.07128e-007
Spine  2.53232 -1.36508 1.1895
Spine1  4.9648 -2.98445 2.45362
RightShoulder  0.0128829 5.04323 6.45637
RightArm  -47.3089 -25.39 72.9784
RightForeArm  19.2025 18.489 3.37639
RightHand  0.422066 -6.9146 -6.60131
LeftShoulder1  0.032117 -0.926219 -9.36818
LeftArm  -16.5321 17.665 -68.1173
LeftForeArm  27.2307 -16.4803 -2.98446
LeftHand  0.135327 5.78257 2.30626
HEad  10.6557 -11.0199 1.73345
RightUpLeg  -26.5637 -17.4777 4.91043
RightLeg  4.1823 -4.08385 -0.0340136
RightFoot  18.679 0.287005 -1.36735
RightToes  -32.5926 -0.162176 -0.269576
54
root  -21.5417 33.0099 -16.5237 2.66791 51.9351 -5.67179
LeftUpLeg  1.31419 1.39728 6.91548
LeftLeg  26.7856 8.84741 3.75087
LeftFoot  -9.98836 -0.148429 -1.69842
LeftToes  -36.8531 6.91067e-007 1.07128e-007
Spine  2.60201 -0.999451 1.97146
Spine1  5.10874 -2.31051 3.95797
RightShoulder  0.0334568 5.55672 6.9269
RightArm  -47.3558 -24.1297 71.1962
RightForeArm  19.9909 15.0823 2.72131
RightHand  0.43272 -7.04107 -6.64858
LeftShoulder1  0.0237034 -0.71785 -9.58516
LeftArm  -18.7745 19.589 -68.9753
LeftForeArm  27.7783 -15.4683 -2.79146
LeftHand  0.157889 5.89794 2.69108
HEad  11.3083 -11.38 1.72655
RightUpLeg  -26.8463 -20.2691 7.63597
RightLeg  9.98968 0.30699 0.0352928
RightFoot  14.9759 0.0494267 0.00150586
RightToes  -25.5285 -0.114373 -0.219719
55
root  -21.0099 33.2156 -15.4878 0.939949 51.3541 -6.9614
LeftUpLeg  0.475757 0.41122 8.29483
LeftLeg  33.1917 9.31773 5.23189
LeftFoot  -4.91188 -0.0412862 -0.96258
LeftToes  -48.2324 6.91067e-007 1.07128e-007
Spine  2.63192 -0.971051 2.46139
Spine1  5.17146 -2.2529 4.86327
RightShoulder  0.0482876 6.04736 7.15112
RightArm  -47.5587 -22.7991 70.2366
RightForeArm  21.1456 13.6397 2.45077
RightHand  0.457467 -7.40565 -6.68398
LeftShoulder1  0.0145242 -0.449426 -9.30406
LeftArm  -21.9406 21.2769 -70.0162
LeftForeArm  28.7062 -14.055 -2.52509
LeftHand  0.195099 6.14273 3.2612
HEad  12.6225 -11.2941 1.76201
RightUpLeg  -24.7426 -18.8675 8.09146
RightLeg  11.795 -0.588762 -0.0826913
RightFoot  12.1053 0.0613141 -0.200687
RightToes  -22.5658 -0.0962192 -0.197125
